<?xml version="1.0" encoding="UTF-8" standalone="no"?>
<svg width="398px" height="398px" viewBox="0 0 398 398" version="1.1" xmlns="http://www.w3.org/2000/svg" xmlns:xlink="http://www.w3.org/1999/xlink" style="background: #000000;">
    <!-- Generator: Sketch 49.1 (51147) - http://www.bohemiancoding.com/sketch -->
    <title>公司logo2 copy 2</title>
    <desc>Created with Sketch.</desc>
    <defs></defs>
    <g id="公司logo2-copy-2" stroke="none" stroke-width="1" fill="none" fill-rule="evenodd">
        <path d="M101.328,137.856 L101.328,162.192 C101.328,169.104 95.856,174.72 88.944,175.008 L82.608,175.008 C75.408,175.008 69.648,169.248 69.648,162.192 L69.648,85.008 C69.648,77.952 75.408,72.192 82.608,72.192 L88.944,72.192 C95.856,72.336 101.328,78.096 101.328,85.008 L101.328,100.416 C101.328,103.728 99.888,105.312 98.592,105.888 L91.104,109.344 L91.104,86.736 C91.104,83.712 88.656,81.264 85.488,81.264 C82.464,81.264 80.016,83.712 80.016,86.736 L80.016,160.32 C80.016,163.488 82.464,165.936 85.488,165.936 C88.656,165.936 91.104,163.488 91.104,160.32 L91.104,146.784 C91.104,143.472 92.544,141.888 93.84,141.168 C94.704,140.736 98.736,139.008 101.328,137.856 Z M174.512,73.2 L180.704,73.2 C183.872,73.2 184.88,75.504 184.88,77.232 L184.88,174 L174.512,174 L174.512,130.08 C174.368,128.784 173.36,127.776 172.064,127.776 L160.832,127.776 L160.832,174 L150.464,174 L150.464,77.232 C150.464,75.504 151.472,73.2 154.64,73.2 L160.832,73.2 L160.832,113.952 C160.832,116.832 161.984,117.552 164.432,117.552 L174.512,117.552 L174.512,73.2 Z M273,174 L261.624,174 L252.552,104.592 L243.48,174 L232.104,174 L247.368,73.2 L252.984,73.2 C257.304,73.2 258.024,75.936 258.456,78.672 L273,174 Z M320.256,73.2 L326.448,73.2 C329.472,73.2 330.624,75.504 330.624,77.232 L330.624,174 L323.28,174 C320.832,174 320.4,172.56 320.256,171.84 L320.256,73.2 Z M73.128,228.2 L103.08,228.2 C102.072,230.792 100.2,234.824 99.768,235.688 C99.048,236.984 97.608,238.568 94.296,238.568 L82.776,238.568 C81.48,238.568 80.328,239.72 80.328,241.016 L80.328,272.408 L98.76,272.408 L95.304,279.896 C94.584,281.192 93.144,282.776 89.832,282.776 L82.92,282.776 C81.48,282.776 80.328,283.784 80.328,285.224 L80.328,325.976 C80.328,327.704 78.888,329 77.304,329 L70.104,329 L70.104,231.224 C70.104,229.64 71.4,228.2 73.128,228.2 Z M162.216,228.2 L168.408,228.2 C171.432,228.2 172.584,230.504 172.584,232.232 L172.584,329 L165.24,329 C162.792,329 162.36,327.56 162.216,326.84 L162.216,228.2 Z M244.304,318.776 L265.904,318.776 C264.752,321.368 263.024,325.4 262.592,326.264 C261.872,327.56 260.288,329 256.976,329 L233.936,329 L233.936,231.08 C234.08,229.496 235.376,228.2 237.104,228.2 L264.032,228.2 L260.576,235.688 C260,236.984 258.416,238.568 255.104,238.568 L246.752,238.568 C245.312,238.568 244.304,239.576 244.304,241.016 L244.304,270.968 L259.856,270.968 C258.704,273.56 256.976,277.736 256.544,278.6 C255.824,279.896 254.384,281.336 251.072,281.336 L246.752,281.336 C245.456,281.336 244.304,282.488 244.304,283.784 L244.304,318.776 Z" id="CHAI-fie" fill="#FFFFFF"></path>
    </g>
</svg>