<?xml version="1.0" encoding="UTF-8" standalone="no"?>
<svg width="398px" height="398px" viewBox="0 0 398 398" version="1.1" xmlns="http://www.w3.org/2000/svg" xmlns:xlink="http://www.w3.org/1999/xlink" style="background: #000000;">
    <!-- Generator: Sketch 49.1 (51147) - http://www.bohemiancoding.com/sketch -->
    <title>公司logo2 copy 2</title>
    <desc>Created with Sketch.</desc>
    <defs></defs>
    <g id="公司logo2-copy-2" stroke="none" stroke-width="1" fill="none" fill-rule="evenodd">
        <path d="M101.682913,137.664 L101.682913,162 C101.682913,168.912 96.2104102,174.528 89.2977745,174.816 L82.9611918,174.816 C75.7605297,174.816 70,169.056 70,162 L70,84.816 C70,77.76 75.7605297,72 82.9611918,72 L89.2977745,72 C96.2104102,72.144 101.682913,77.904 101.682913,84.816 L101.682913,100.224 C101.682913,103.536 100.242781,105.12 98.9466618,105.696 L91.4579731,109.152 L91.4579731,86.544 C91.4579731,83.52 89.009748,81.072 85.8414567,81.072 C82.8171786,81.072 80.3689535,83.52 80.3689535,86.544 L80.3689535,160.128 C80.3689535,163.296 82.8171786,165.744 85.8414567,165.744 C89.009748,165.744 91.4579731,163.296 91.4579731,160.128 L91.4579731,146.592 C91.4579731,143.28 92.8981056,141.696 94.1942248,140.976 C95.0583042,140.544 99.090675,138.816 101.682913,137.664 Z M174.873644,73.008 L181.066213,73.008 C184.234504,73.008 185.242597,75.312 185.242597,77.04 L185.242597,173.808 L174.873644,173.808 L174.873644,129.888 C174.72963,128.592 173.721538,127.584 172.425418,127.584 L161.192386,127.584 L161.192386,173.808 L150.823432,173.808 L150.823432,77.04 C150.823432,75.312 151.831525,73.008 154.999816,73.008 L161.192386,73.008 L161.192386,113.76 C161.192386,116.64 162.344491,117.36 164.792717,117.36 L174.873644,117.36 L174.873644,73.008 Z M273.370701,173.808 L261.993655,173.808 L252.92082,104.4 L243.847986,173.808 L232.47094,173.808 L247.736344,73.008 L253.35286,73.008 C257.673257,73.008 258.393324,75.744 258.825363,78.48 L273.370701,173.808 Z M320.631047,73.008 L326.823616,73.008 C329.847894,73.008 331,75.312 331,77.04 L331,173.808 L323.655325,173.808 C321.2071,173.808 320.77506,172.368 320.631047,171.648 L320.631047,73.008 Z M73.48032,228.008 L103.435074,228.008 C102.426982,230.6 100.55481,234.632 100.12277,235.496 C99.4027037,236.792 97.9625713,238.376 94.6502667,238.376 L83.1292073,238.376 C81.8330881,238.376 80.6809822,239.528 80.6809822,240.824 L80.6809822,272.216 L99.1146772,272.216 L95.6583594,279.704 C94.9382932,281 93.4981608,282.584 90.1858562,282.584 L83.2732205,282.584 C81.8330881,282.584 80.6809822,283.592 80.6809822,285.032 L80.6809822,325.784 C80.6809822,327.512 79.2408497,328.808 77.6567041,328.808 L70.4560419,328.808 L70.4560419,231.032 C70.4560419,229.448 71.7521611,228.008 73.48032,228.008 Z M162.576513,228.008 L168.769082,228.008 C171.79336,228.008 172.945466,230.312 172.945466,232.04 L172.945466,328.808 L165.600791,328.808 C163.152566,328.808 162.720526,327.368 162.576513,326.648 L162.576513,228.008 Z M245.672154,318.584 L267.27414,318.584 C266.122034,321.176 264.393875,325.208 263.961836,326.072 C263.241769,327.368 261.657624,328.808 258.345319,328.808 L235.3032,328.808 L235.3032,230.888 C235.447214,229.304 236.743333,228.008 238.471492,228.008 L265.401968,228.008 L261.94565,235.496 C261.369597,236.792 259.785452,238.376 256.473147,238.376 L248.120379,238.376 C246.680246,238.376 245.672154,239.384 245.672154,240.824 L245.672154,270.776 L261.225584,270.776 C260.073478,273.368 258.345319,277.544 257.913279,278.408 C257.193213,279.704 255.753081,281.144 252.440776,281.144 L248.120379,281.144 C246.82426,281.144 245.672154,282.296 245.672154,283.592 L245.672154,318.584 Z" id="CHAI-fie" fill="#FFFFFF"></path>
        <path d="M256.017013,318.584 L274.274416,318.584 C273.12231,321.176 271.394151,325.208 270.962111,326.072 C270.242045,327.368 268.6579,328.808 265.345595,328.808 L256.017013,328.808 L256.017013,318.584 Z M256.017013,228.008 L272.402244,228.008 L268.945926,235.496 C268.369873,236.792 266.785727,238.376 263.473423,238.376 L256.017013,238.376 L256.017013,228.008 Z M256.017013,270.776 L268.22586,270.776 C267.073754,273.368 265.345595,277.544 264.913555,278.408 C264.193489,279.704 262.753357,281.144 259.441052,281.144 L256.017013,281.144 L256.017013,270.776 Z" id="Combined-Shape" fill="#FFFFFF"></path>
    </g>
</svg>